<svg width="224" height="319" viewBox="0 0 224 319" fill="none" xmlns="http://www.w3.org/2000/svg">
<path d="M214 0H10C4.47715 0 0 4.47716 0 10V309C0 314.523 4.47715 319 10 319H214C219.523 319 224 314.523 224 309V10C224 4.47715 219.523 0 214 0Z" fill="url(#paint0_radial)"/>
<g clip-path="url(#clip0)">
<path d="M144.336 169.865L134.587 137.943C134.386 137.291 134.285 136.638 134.285 135.986V121.982H139.863C141.22 121.982 142.326 120.878 142.326 119.523C142.326 118.168 141.22 117.064 139.863 117.064H85.0864C83.7295 117.064 82.624 118.168 82.624 119.523C82.624 120.878 83.7295 121.982 85.0864 121.982H90.6144V135.986C90.6144 136.638 90.5138 137.291 90.3128 137.943L80.5635 169.865C79.9102 172.023 80.3123 174.282 81.6691 176.139C83.026 177.946 85.0864 179 87.3478 179H137.602C139.863 179 141.924 177.946 143.281 176.139C144.587 174.282 144.989 172.023 144.336 169.865ZM95.0367 139.349C95.3885 138.244 95.5393 137.09 95.5393 135.936V121.932H129.411V135.936C129.411 137.09 129.561 138.244 129.913 139.349L139.662 171.27C139.863 171.923 139.763 172.626 139.311 173.178C138.909 173.73 138.255 174.031 137.602 174.031H87.3478C86.6443 174.031 86.0412 173.73 85.6392 173.178C85.2372 172.626 85.0864 171.923 85.2874 171.27L95.0367 139.349Z" fill="white"/>
<path d="M101.017 151.947H110.213C111.57 151.947 112.676 150.843 112.676 149.487C112.676 148.132 111.57 147.028 110.213 147.028H101.017C99.6601 147.028 98.5545 148.132 98.5545 149.487C98.5545 150.843 99.7103 151.947 101.017 151.947Z" fill="white"/>
<path d="M101.017 160.931H110.213C111.57 160.931 112.676 159.827 112.676 158.472C112.676 157.116 111.57 156.012 110.213 156.012H101.017C99.6601 156.012 98.5545 157.116 98.5545 158.472C98.6048 159.827 99.7103 160.931 101.017 160.931Z" fill="white"/>
<path d="M101.117 142.962H110.314C111.671 142.962 112.776 141.858 112.776 140.503C112.776 139.148 111.671 138.044 110.314 138.044H101.117C99.7606 138.044 98.655 139.148 98.655 140.503C98.655 141.858 99.7606 142.962 101.117 142.962Z" fill="white"/>
<path d="M101.017 169.915H110.213C111.57 169.915 112.676 168.811 112.676 167.456C112.676 166.101 111.57 164.997 110.213 164.997H101.017C99.6601 164.997 98.5545 166.101 98.5545 167.456C98.6048 168.811 99.7103 169.915 101.017 169.915Z" fill="white"/>
<path d="M127.451 88.2034H122.526C122.023 88.2034 121.621 88.605 121.621 89.1069V94.0257C121.621 94.5276 122.023 94.9291 122.526 94.9291H127.451C127.953 94.9291 128.355 94.5276 128.355 94.0257V89.1069C128.355 88.605 127.953 88.2034 127.451 88.2034Z" fill="white"/>
<path d="M99.9616 95.1299C101.932 95.1299 103.53 93.5344 103.53 91.5663C103.53 89.5982 101.932 88.0027 99.9616 88.0027C97.991 88.0027 96.3936 89.5982 96.3936 91.5663C96.3936 93.5344 97.991 95.1299 99.9616 95.1299Z" fill="white"/>
<path d="M143.582 79.8716C143.582 79.5705 143.582 79.3195 143.582 79.0184C143.582 61.9031 129.612 48 112.475 48C95.3382 48 81.4178 61.9031 81.4178 79.0686C81.4178 79.3195 81.4178 79.6207 81.4178 79.9218C73.729 81.0762 68 87.7015 68 95.5816C68 104.315 75.1361 111.442 83.8803 111.442H85.7397H89.2072H91.0666C92.4235 111.442 93.5793 110.338 93.5793 108.933C93.5793 107.527 92.4737 106.423 91.0666 106.423H83.8803C77.8498 106.423 72.9752 101.554 72.9752 95.5314C72.9752 89.5084 77.8498 84.6398 83.8803 84.6398H84.0311H84.0813C84.7849 84.6398 85.4382 84.3387 85.9407 83.8368C86.4433 83.3349 86.6443 82.582 86.594 81.8793C86.4935 80.9257 86.4433 79.972 86.4433 79.0184C86.4433 64.6636 98.1525 52.9188 112.575 52.9188C126.998 52.9188 138.708 64.6134 138.708 79.0184C138.708 79.972 138.657 80.9257 138.557 81.8793C138.456 82.582 138.708 83.2847 139.21 83.8368C139.713 84.3387 140.316 84.6398 141.019 84.6398H141.069H141.22C147.2 84.6398 152.125 89.5084 152.125 95.5314C152.125 101.554 147.251 106.423 141.22 106.423H134.084C132.727 106.423 131.571 107.527 131.571 108.933C131.571 110.338 132.677 111.442 134.084 111.442H135.944H139.411H141.27C150.015 111.442 157.151 104.315 157.151 95.5816C157 87.7015 151.271 81.0762 143.582 79.8716Z" fill="white"/>
</g>
<defs>
<radialGradient id="paint0_radial" cx="0" cy="0" r="1" gradientUnits="userSpaceOnUse" gradientTransform="translate(200.2 58.4169) scale(205.8 253.483)">
<stop stop-color="#FFA4A4"/>
<stop offset="0.9997" stop-color="#FC2860"/>
</radialGradient>
<clipPath id="clip0">
<rect width="89" height="131" fill="white" transform="translate(68 48)"/>
</clipPath>
</defs>
</svg>
