<svg width="744" height="608" viewBox="0 0 744 608" fill="none" xmlns="http://www.w3.org/2000/svg">
<path d="M852.787 760.52H951.389C1040.37 760.52 1112.52 688.41 1112.52 599.475C1112.52 510.539 1040.37 438.429 951.389 438.429H949.465C942.25 438.429 935.997 435.545 931.188 430.738C926.378 425.45 924.454 418.719 924.935 411.989C926.378 398.529 927.34 384.587 927.34 371.127C927.34 166.335 760.919 0.00103943 556.019 0.00103943C351.6 -0.479693 185.179 165.854 185.179 370.646C185.179 384.107 186.141 397.567 187.584 411.508C188.546 418.239 186.141 424.969 181.331 430.257C177.003 435.064 170.269 437.949 163.535 437.949C163.535 437.949 163.535 437.949 163.054 437.949H161.13C72.1478 437.949 0 510.059 0 598.994C0 687.93 72.1478 760.04 161.13 760.04H259.732H852.787V760.52Z" fill="#FC2860" fill-opacity="0.05"/>
</svg>
