<svg width="40" height="40" viewBox="0 0 40 40" fill="none" xmlns="http://www.w3.org/2000/svg">
<path fill-rule="evenodd" clip-rule="evenodd" d="M20 38.3333C30.1252 38.3333 38.3333 30.1252 38.3333 20C38.3333 9.87478 30.1252 1.66667 20 1.66667C9.87478 1.66667 1.66667 9.87478 1.66667 20C1.66667 30.1252 9.87478 38.3333 20 38.3333ZM20 40C31.0457 40 40 31.0457 40 20C40 8.9543 31.0457 0 20 0C8.9543 0 0 8.9543 0 20C0 31.0457 8.9543 40 20 40Z" fill="white"/>
<path fill-rule="evenodd" clip-rule="evenodd" d="M16.0645 20.576C15.7563 20.2538 15.7563 19.7462 16.0645 19.424L22.4413 12.7573C22.7594 12.4247 23.2869 12.413 23.6195 12.7311C23.9521 13.0493 23.9638 13.5768 23.6457 13.9094L17.8198 20L23.6457 26.0906C23.9638 26.4232 23.9521 26.9507 23.6195 27.2689C23.2869 27.587 22.7594 27.5753 22.4413 27.2427L16.0645 20.576Z" fill="white"/>
</svg>
