<svg width="88" height="88" viewBox="0 0 88 88" fill="none" xmlns="http://www.w3.org/2000/svg">
<g filter="url(#filter0_d)">
<circle cx="44" cy="40" r="40" fill="url(#paint0_radial)"/>
</g>
<g clip-path="url(#clip0)">
<path fill-rule="evenodd" clip-rule="evenodd" d="M44.5 10C27.6595 10 14 23.7736 14 40.7547C14 54.3396 22.7945 65.8491 34.7699 70C36.2669 70.1887 36.8282 69.2453 36.8282 68.4906C36.8282 67.7359 36.8282 65.8491 36.8282 63.2076C28.408 65.0943 26.5368 59.0566 26.5368 59.0566C25.227 55.4717 23.1687 54.5283 23.1687 54.5283C20.362 52.6415 23.3558 52.6415 23.3558 52.6415C26.3497 52.8302 28.0337 55.8491 28.0337 55.8491C30.8405 60.566 35.1442 59.2453 36.8282 58.4906C37.0153 56.4151 37.9509 55.0943 38.6994 54.3396C31.9632 53.5849 24.8528 50.9434 24.8528 39.0566C24.8528 35.6604 25.9755 33.0189 28.0337 30.7547C27.8466 30.1887 26.7239 26.9811 28.408 22.8302C28.408 22.8302 31.0276 22.0755 36.8282 26.0377C39.2607 25.283 41.8804 25.0943 44.5 25.0943C47.1196 25.0943 49.7393 25.4717 52.1718 26.0377C57.9724 22.0755 60.592 22.8302 60.592 22.8302C62.2761 26.9811 61.1534 30.1887 60.9663 30.9434C62.8374 33.0189 64.1472 35.8491 64.1472 39.2453C64.1472 51.1321 57.0368 53.5849 50.3006 54.3396C51.4233 55.283 52.3589 57.1698 52.3589 60C52.3589 64.1509 52.3589 67.3585 52.3589 68.4906C52.3589 69.2453 52.9202 70.1887 54.4172 70C66.5798 65.8491 75.1871 54.3396 75.1871 40.7547C75 23.7736 61.3405 10 44.5 10Z" fill="#231E1B"/>
</g>
<defs>
<filter id="filter0_d" x="0" y="0" width="88" height="88" filterUnits="userSpaceOnUse" color-interpolation-filters="sRGB">
<feFlood flood-opacity="0" result="BackgroundImageFix"/>
<feColorMatrix in="SourceAlpha" type="matrix" values="0 0 0 0 0 0 0 0 0 0 0 0 0 0 0 0 0 0 127 0"/>
<feOffset dy="4"/>
<feGaussianBlur stdDeviation="2"/>
<feColorMatrix type="matrix" values="0 0 0 0 0 0 0 0 0 0 0 0 0 0 0 0 0 0 0.25 0"/>
<feBlend mode="normal" in2="BackgroundImageFix" result="effect1_dropShadow"/>
<feBlend mode="normal" in="SourceGraphic" in2="effect1_dropShadow" result="shape"/>
</filter>
<radialGradient id="paint0_radial" cx="0" cy="0" r="1" gradientUnits="userSpaceOnUse" gradientTransform="translate(44 17) rotate(90) scale(63 89.285)">
<stop stop-color="#FFE816"/>
<stop offset="1" stop-color="#FFCC16"/>
</radialGradient>
<clipPath id="clip0">
<rect width="61" height="60" fill="white" transform="translate(14 10)"/>
</clipPath>
</defs>
</svg>
