<svg width="100" height="127" viewBox="0 0 100 127" fill="none" xmlns="http://www.w3.org/2000/svg">
<path d="M0 126.165L0.0330907 96.4073H6.58504L6.55195 126.165H0Z" fill="black"/>
<path d="M26.4725 126.198V113.483C26.4725 110.411 25.0165 108.859 22.5678 108.859C20.086 108.859 18.5307 110.411 18.5307 113.483V126.198H12.0449L12.078 103.409H18.5638V106.646C20.0529 104.73 21.9721 102.98 25.2481 103.013C30.1455 103.013 32.9913 106.25 32.9913 111.468L32.9582 126.198H26.4725Z" fill="black"/>
<path d="M59.2323 117.116L43.051 117.083C43.7128 120.022 45.7644 121.541 48.7426 121.541C50.9597 121.541 52.548 120.881 54.4011 119.196L58.1734 122.466C55.9894 125.108 52.8789 126.694 48.6433 126.694C41.6612 126.694 36.499 121.872 36.499 114.903V114.804C36.499 108.297 41.231 102.947 48.0146 102.947C55.7909 102.947 59.3316 108.859 59.3316 115.332V115.431C59.3316 116.125 59.2654 116.521 59.2323 117.116ZM48.0146 108.198C45.2681 108.198 43.4812 110.114 42.9848 113.02H52.912C52.5149 110.18 50.7942 108.198 48.0146 108.198Z" fill="black"/>
<path d="M76.4726 126.264V123.787C74.8842 125.538 72.7333 126.661 69.5897 126.661C65.2879 126.661 61.7472 124.184 61.7803 119.692V119.593C61.7803 114.606 65.5857 112.327 70.9795 112.327C73.2628 112.327 74.9504 112.723 76.5388 113.284V112.888C76.5388 110.213 74.8842 108.727 71.6413 108.727C69.1595 108.727 67.4388 109.189 65.3541 109.949L63.7327 105.028C66.2476 103.938 68.7294 103.211 72.601 103.211C79.6824 103.211 82.7598 106.877 82.7598 113.053L82.7267 126.264H76.4726ZM76.6049 117.083C75.5129 116.587 74.057 116.224 72.4686 116.224C69.689 116.224 68.0014 117.314 68.0014 119.361V119.461C68.0014 121.211 69.4574 122.235 71.5421 122.235C74.5533 122.235 76.6049 120.584 76.6049 118.239V117.083Z" fill="black"/>
<path d="M94.7717 126.661C90.8008 126.661 88.1205 125.075 88.1536 119.824V109.024H85.4401V103.508H88.1536V97.6954H94.6393V103.508H100V109.024H94.6393V118.767C94.6393 120.253 95.2681 120.98 96.724 120.98C97.9153 120.98 98.9742 120.683 99.9338 120.187V125.372C98.544 126.165 96.9557 126.661 94.7717 126.661Z" fill="black"/>
<path d="M65.1225 43.0018V38.345C65.1225 37.8826 64.7585 37.4862 64.2621 37.4862H59.5963C59.1331 37.4862 58.736 37.8826 58.736 38.345V43.0018C58.736 43.4642 59.1 43.8605 59.5963 43.8605H64.2621C64.7585 43.8605 65.1225 43.4642 65.1225 43.0018Z" fill="#FC2860"/>
<path d="M51.7206 85.7395V63.8092C51.7206 62.8844 50.9927 62.1578 50.0661 62.1578C49.1396 62.1578 48.4116 62.8844 48.4116 63.8092V85.7395C46.1945 86.433 44.5731 88.5138 44.5731 90.9578C44.5731 93.9633 47.0218 96.4074 50.033 96.4074C53.0443 96.4074 55.493 93.9633 55.493 90.9578C55.5261 88.4807 53.9046 86.433 51.7206 85.7395ZM50.0661 93.1046C48.8748 93.1046 47.8821 92.1468 47.8821 90.9248C47.8821 89.7028 48.8418 88.745 50.0661 88.745C51.2574 88.745 52.2501 89.7028 52.2501 90.9248C52.2501 92.1468 51.2574 93.1046 50.0661 93.1046Z" fill="#FC2860"/>
<path d="M38.1536 44.0587C40.036 44.0587 41.562 42.5356 41.562 40.6569C41.562 38.7781 40.036 37.255 38.1536 37.255C36.2713 37.255 34.7453 38.7781 34.7453 40.6569C34.7453 42.5356 36.2713 44.0587 38.1536 44.0587Z" fill="#FC2860"/>
<path d="M38.1536 60.011C37.2271 60.011 36.4991 60.7376 36.4991 61.6624V74.8074C36.4991 76.0624 35.6056 77.1193 34.4144 77.3505C33.6864 75.1707 31.6347 73.5853 29.2191 73.5853C26.2079 73.5853 23.7592 76.0294 23.7592 79.0349C23.7592 82.0404 26.2079 84.4844 29.2191 84.4844C31.6678 84.4844 33.7525 82.8661 34.4474 80.6532C37.4256 80.389 39.775 77.8459 39.775 74.8074V61.6624C39.8081 60.7706 39.0801 60.011 38.1536 60.011ZM29.2191 81.2147C28.0279 81.2147 27.0351 80.2569 27.0351 79.0349C27.0351 77.8459 27.9948 76.8551 29.2191 76.8551C30.4104 76.8551 31.4031 77.8129 31.4031 79.0349C31.4031 80.2569 30.4435 81.2147 29.2191 81.2147Z" fill="#FC2860"/>
<path d="M70.8803 73.5853C68.4647 73.5853 66.413 75.1707 65.685 77.3505C64.4938 77.1193 63.6003 76.0624 63.6003 74.8074V61.6624C63.6003 60.7376 62.8723 60.011 61.9458 60.011C61.0193 60.011 60.2913 60.7376 60.2913 61.6624V74.8074C60.2913 77.8789 62.6407 80.389 65.6189 80.6532C66.3138 82.8661 68.3985 84.4844 70.8472 84.4844C73.8584 84.4844 76.3071 82.0404 76.3071 79.0349C76.3071 76.0294 73.8915 73.5853 70.8803 73.5853ZM70.8803 81.2147C69.689 81.2147 68.6963 80.2569 68.6963 79.0349C68.6963 77.8459 69.6559 76.8551 70.8803 76.8551C72.0715 76.8551 73.0643 77.8129 73.0643 79.0349C73.0312 80.2569 72.0715 81.2147 70.8803 81.2147Z" fill="#FC2860"/>
<path d="M88.5176 61.7284C86.0689 61.7284 84.0173 63.3468 83.2893 65.5596H78.0941C76.6712 65.5596 75.4799 64.4037 75.4799 62.9505V58.855H77.2337C85.1755 58.855 91.6282 52.4147 91.6282 44.4881C91.6282 37.1229 86.0358 31.0128 78.8551 30.2202C78.8882 29.7578 78.8882 29.2624 78.8882 28.8C78.8882 12.9138 65.9498 0 50.0332 0C34.1165 0 21.2112 12.9138 21.2112 28.8C21.2112 29.2624 21.2112 29.7248 21.2443 30.2202C14.0636 31.0128 8.47126 37.1229 8.47126 44.4881C8.47126 52.4147 14.9239 58.855 22.8657 58.855H24.6195V62.9505C24.6195 64.3706 23.4613 65.5596 22.0054 65.5596H16.8101C16.1152 63.3468 14.0305 61.7284 11.5818 61.7284C8.57054 61.7284 6.12183 64.1725 6.12183 67.178C6.12183 70.1835 8.57054 72.6275 11.5818 72.6275C14.0305 72.6275 16.0821 71.0092 16.8101 68.7963H22.0054C25.2482 68.7963 27.8955 66.1541 27.8955 62.9174V58.822H29.6493C30.5758 58.822 31.3038 58.0954 31.3038 57.1706C31.3038 56.2459 30.5758 55.5193 29.6493 55.5193H22.8657C16.7439 55.5193 11.7803 50.5651 11.7803 44.455C11.7803 38.345 16.7439 33.3908 22.8657 33.3908H22.9981C22.9981 33.3908 22.9981 33.3908 23.0312 33.3908C23.4944 33.3908 23.9246 33.1927 24.2555 32.8624C24.5864 32.4991 24.7188 32.0367 24.6857 31.5743C24.5864 30.6495 24.5202 29.6917 24.5202 28.767C24.5202 14.6972 35.9696 3.26972 50.0663 3.26972C64.1629 3.26972 75.6123 14.6972 75.6123 28.767C75.6123 29.6917 75.5461 30.6165 75.4468 31.5743C75.3806 32.0367 75.5461 32.4991 75.877 32.8624C76.2079 33.2257 76.6381 33.4239 77.1344 33.3908H77.2668C83.3886 33.3908 88.3522 38.345 88.3522 44.455C88.3522 50.5651 83.3886 55.5193 77.2668 55.5193H70.4832C69.5567 55.5193 68.8287 56.2459 68.8287 57.1706C68.8287 58.0954 69.5567 58.822 70.4832 58.822H72.237V62.9174C72.237 66.1541 74.8843 68.7963 78.1272 68.7963H83.3224C84.0173 71.0092 86.102 72.6275 88.5507 72.6275C91.562 72.6275 94.0107 70.1835 94.0107 67.178C93.9776 64.1725 91.5289 61.7284 88.5176 61.7284ZM11.6149 69.3578C10.4236 69.3578 9.43089 68.4 9.43089 67.178C9.43089 65.956 10.3905 64.9982 11.6149 64.9982C12.8392 64.9982 13.7989 65.956 13.7989 67.178C13.7989 68.4 12.8061 69.3578 11.6149 69.3578ZM88.5176 69.3578C87.3264 69.3578 86.3336 68.4 86.3336 67.178C86.3336 65.956 87.2933 64.9982 88.5176 64.9982C89.7089 64.9982 90.7016 65.956 90.7016 67.178C90.7016 68.4 89.7089 69.3578 88.5176 69.3578Z" fill="#FC2860"/>
</svg>
